# AST/ASF file generated using VICON BodyLanguage
# -----------------------------------------------
:version 1.10
:name VICON
:units
  mass 1.0
  length 0.45
  angle deg
:documentation
   .ast/.asf automatically generated from VICON data using
   VICON BodyBuilder and BodyLanguage model FoxedUp or BRILLIANT.MOD
:root
   order TX TY TZ RX RY RZ
   axis XYZ
   position 0 0 0  
   orientation 0 0 0 
:bonedata
  begin
     id 1 
     name lhipjoint
     direction 0.573633 -0.743009 0.344793 
     length 2.46257 
     axis 0 0 0  XYZ
  end
  begin
     id 2 
     name lfemur
     direction 0.34202 -0.939693 0  
     length 7.3842  
     axis 0 0 20  XYZ
    dof rx ry rz
    limits (-160.0 20.0)
           (-70.0 70.0)
           (-60.0 70.0)
  end
  begin
     id 3 
     name ltibia
     direction 0.34202 -0.939693 0   
     length 7.50407   
     axis 0 0 20   XYZ
    dof rx
    limits (-10.0 170.0)
  end
  begin
     id 4 
     name lfoot
     direction 0.110749 -0.304281 0.946123   
     length 1.95925   
     axis -90 7.62852e-016 20   XYZ
    dof rx rz
    limits (-45.0 90.0)
           (-70.0 20.0)
  end
  begin
     id 5 
     name ltoes
     direction 1.53554e-011 -4.21843e-011 1   
     length 0.978318   
     axis -90 7.62852e-016 20   XYZ
    dof rx
    limits (-90.0 20.0)
  end
  begin
     id 6 
     name rhipjoint
     direction -0.488109 -0.791693 0.367385   
     length 2.31113  
     axis 0 0 0  XYZ 
  end
  begin
     id 7 
     name rfemur
     direction -0.34202 -0.939693 0   
     length 7.40965   
     axis 0 0 -20   XYZ
    dof rx ry rz
    limits (-160.0 20.0)
           (-70.0 70.0)
           (-70.0 60.0)
  end
  begin
     id 8 
     name rtibia
     direction -0.34202 -0.939693 0   
     length 7.55548   
     axis 0 0 -20   XYZ
    dof rx
    limits (-10.0 170.0)
 end
 begin
     id 9 
     name rfoot
     direction -0.127594 -0.350561 0.927808   
     length 2.07199  
     axis -90 -7.62852e-016 -20   XYZ
    dof rx rz
    limits (-45.0 90.0)
           (-20.0 70.0)
  end
  begin
     id 10 
     name rtoes
     direction -1.53542e-011 -4.21909e-011 1   
     length 1.02667   
     axis -90 -7.62852e-016 -20   XYZ
    dof rx
    limits (-90.0 20.0)
  end
  begin
     id 11 
     name lowerback
     direction -0.0103342 0.997298 -0.0727278   
     length 2.02836   
     axis 0 0 0   XYZ
    dof rx ry rz
    limits (-20.0 45.0)
           (-30.0 30.0)
           (-30.0 30.0)
  end
  begin
     id 12 
     name upperback
     direction 0.0171146 0.999786 -0.011606   
     length 2.03179   
     axis 0 0 0   XYZ
    dof rx ry rz
    limits (-20.0 45.0)
           (-30.0 30.0)
           (-30.0 30.0)
  end
  begin
     id 13 
     name thorax
     direction 0.0216927 0.999513 0.0224343   
     length 2.03882   
     axis 0 0 0   XYZ
    dof rx ry rz
    limits (-20.0 45.0)
           (-30.0 30.0)
           (-30.0 30.0)
  end
  begin
     id 14 
     name lowerneck
     direction 0.000989287 0.993907 0.110221   
     length 1.75428   
     axis 0 0 0   XYZ
    dof rx ry rz
    limits (-20.0 45.0)
           (-30.0 30.0)
           (-30.0 30.0)
  end
  begin
     id 15 
     name upperneck
     direction -0.0172474 0.994813 -0.100253   
     length 1.77058   
     axis 0 0 0   XYZ
    dof rx ry rz
    limits (-20.0 45.0)
           (-30.0 30.0)
           (-30.0 30.0)
  end
  begin
     id 16
     name head
     direction -0.00486455 0.99894 -0.0457663  
     length 1.77427  
     axis 0 0 0   XYZ
    dof rx ry rz
    limits (-20.0 45.0)
           (-30.0 30.0)
           (-30.0 30.0)
  end
  begin
     id 17 
     name lclavicle
     direction 0.927314 0.333734 -0.169441  
     length 3.97584  
     axis 0 0 0   XYZ
    dof ry rz
    limits (-20.0 10.0)
           (0.0 20.0)
  end
  begin
     id 18 
     name lhumerus
     direction 1 -4.48965e-011 -3.25313e-028   
     length 4.76468   
     axis 180 -30 -90   XYZ
    dof rx ry rz
    limits (-60.0 90.0)
           (-90.0 90.0)
           (-90.0 90.0)
  end
  begin
     id 19
     name lradius
     direction 1 -4.48969e-011 -2.8465e-028   
     length 3.52712   
     axis -180 -30 -90   XYZ
    dof rx
    limits (-10.0 170.0)
  end
  begin
     id 20
     name lwrist
     direction 1 -4.4896e-011 -7.78665e-028   
     length 1.76356   
     axis 1.91374e-015 90 90   XYZ
    dof ry
    limits (-180.0 0.0)
 end
  begin
     id 21 
     name lhand
     direction 1 -4.48959e-011 -1.55733e-027   
     length 0.859564   
     axis 9.9371e-016 90 90   XYZ
    dof rx rz
    limits (-90.0 90.0)
           (-45.0 45.0)
  end
  begin
     id 22 
     name lfingers
     direction 1 -4.48965e-011 -3.11466e-027   
     length 0.693002   
     axis 1.98742e-015 90 90   XYZ
    dof rx
    limits (0.0 90.0)
  end
  begin
     id 23
     name lthumb
     direction 0.707107 -6.34948e-011 0.707107   
     length 0.995017   
     axis -90 45 2.85299e-015   XYZ
    dof rx rz
    limits (-45.0 45.0)
           (-45.0 45.0)
  end
  begin
     id 24 
     name rclavicle
     direction -0.899388 0.348209 -0.264294   
     length 3.68366  
     axis 0 0 0   XYZ 
    dof ry rz
    limits (-10.0 20.0)
           (-20.0 0.0)
  end
  begin
     id 25 
     name rhumerus
     direction -1 -4.48965e-011 -3.01536e-027  
     length 4.90577   
     axis 180 30 90   XYZ
    dof rx ry rz
    limits (-90.0 60.0)
           (-90.0 90.0)
           (-90.0 90.0)
  end
  begin
     id 26 
     name rradius
     direction -1 -4.48966e-011 3.93291e-027   
     length 3.42692   
     axis -180 30 90   XYZ
    dof rx
    limits (-10.0 170.0)
  end
  begin
     id 27 
     name rwrist
     direction -1 -4.48969e-011 -7.78665e-028   
     length 1.71346   
     axis 1.91374e-015 -90 -90   XYZ
    dof ry
    limits (-180.0 0.0)
  end
  begin
     id 28
     name rhand
     direction -1 -4.48967e-011 -1.55733e-027   
     length 0.740957   
     axis 9.9371e-016 -90 -90   XYZ
    dof rx rz
    limits (-90.0 90.0)
           (-45.0 45.0)
  end
  begin
     id 29
     name rfingers
     direction -1 -4.48949e-011 -3.11466e-027   
     length 0.597378   
     axis 1.98742e-015 -90 -90   XYZ
    dof rx
    limits (0.0 90.0)
  end
  begin
     id 30
     name rthumb
     direction -0.707107 -6.34931e-011 0.707107   
     length 0.857719   
     axis -90 -45 -2.85299e-015   XYZ
    dof rx rz
    limits (-45.0 45.0)
           (-45.0 45.0)
  end
:hierarchy
  begin
    root lhipjoint rhipjoint lowerback
    lhipjoint lfemur
    lfemur ltibia
    ltibia lfoot
    lfoot ltoes
    rhipjoint rfemur
    rfemur rtibia
    rtibia rfoot
    rfoot rtoes
    lowerback upperback
    upperback thorax
    thorax lowerneck lclavicle rclavicle
    lowerneck upperneck
    upperneck head
    lclavicle lhumerus
    lhumerus lradius
    lradius lwrist
    lwrist lhand lthumb
    lhand lfingers
    rclavicle rhumerus
    rhumerus rradius
    rradius rwrist
    rwrist rhand rthumb
    rhand rfingers
  end

#!OML:ASF E:\I on waltz\AllaLogoMonkeySwing\Project 1\Capture day 1\Session 1\Subject1.ASF
:FULLY-SPECIFIED
:DEGREES
17
root 1.16481 17.7937 5.32079 5.05986 -2.07209 2.06721
lowerback -1.84459 -1.99425 -5.95979
upperback -3.39393 -2.63915 0.616705
thorax -2.17567 -1.17404 3.97095
lowerneck -6.24461 -7.9742 -7.82177
upperneck 12.0949 -10.5337 4.56445
head 5.32485 -5.24281 1.94603
rclavicle 1.06505e-014 7.35503e-015
rhumerus -29.3913 -23.0031 -78.8175
rradius 17.1289
rwrist 7.8017
rhand -7.80358 -33.0098
rfingers 7.12502
rthumb 18.0978 -62.1878
lclavicle 1.06505e-014 7.35503e-015
lhumerus -42.2572 27.339 76.2325
lradius 33.3396
lwrist -5.98074
lhand -6.29892 -12.4382
lfingers 7.12502
lthumb 19.545 16.5994
rfemur -3.32774 -0.368535 11.4732
rtibia 14.7852
rfoot -13.9458 -13.7945
rtoes 14.2548
lfemur -1.81104 0.463363 -19.2232
ltibia 10.8592
lfoot -15.1843 2.73688
ltoes -27.6881
18
root 1.16625 17.793 5.32155 5.05601 -2.06271 2.06134
lowerback -1.84165 -1.97213 -5.91783
upperback -3.43411 -2.61092 0.632098
thorax -2.22309 -1.1583 3.96474
lowerneck -6.96638 -7.47535 -7.40393
upperneck 13.1273 -9.85657 4.30728
head 5.6913 -4.89848 1.81534
rclavicle -1.67631e-014 2.5345e-014
rhumerus -29.4474 -22.906 -78.8003
rradius 17.1399
rwrist 7.8841
rhand -7.92839 -33.0125
rfingers 7.12502
rthumb 17.9777 -62.2016
lclavicle -1.67631e-014 2.5345e-014
lhumerus -42.2173 27.1915 76.3494
lradius 33.1805
lwrist -6.26187
lhand -6.15071 -12.497
lfingers 7.12502
lthumb 19.6875 16.5261
rfemur -3.33266 -0.366889 11.4766
rtibia 14.7937
rfoot -13.9516 -13.7982
rtoes 14.4563
lfemur -1.82714 0.512647 -19.2088
ltibia 10.9005
lfoot -15.2204 2.66044
ltoes -27.5711
19
root 1.16741 17.7924 5.323 5.07845 -2.04269 2.06898
lowerback -1.90088 -1.95569 -5.89456
upperback -3.4678 -2.58597 0.641934
thorax -2.22802 -1.14534 3.96066
lowerneck -7.74704 -6.91933 -6.9489
upperneck 14.2813 -9.1144 4.07939
head 6.10965 -4.5184 1.69452
rclavicle -1.72384e-014 -1.59028e-014
rhumerus -29.5027 -22.9248 -78.7394
rradius 17.1695
rwrist 7.85644
rhand -8.08413 -32.9736
rfingers 7.12502
rthumb 17.8279 -62.1764
lclavicle -1.72384e-014 -1.59028e-014
lhumerus -42.1371 26.8843 76.553
lradius 33.0552
lwrist -6.31187
lhand -6.18569 -12.4727
lfingers 7.12502
lthumb 19.6538 16.5538
rfemur -3.3473 -0.40238 11.4607
rtibia 14.7968
rfoot -13.9868 -13.7952
rtoes 14.6081
lfemur -1.86771 0.560921 -19.2079
ltibia 10.9306
lfoot -15.229 2.58681
ltoes -27.51
20
root 1.16869 17.7922 5.32471 5.10427 -2.03546 2.0677
lowerback -1.96267 -1.89946 -5.84171
upperback -3.49818 -2.50803 0.636101
thorax -2.23562 -1.10677 3.92416
lowerneck -8.64329 -6.34587 -6.56868
upperneck 15.6419 -8.37364 4.03901
head 6.63484 -4.1272 1.64455
rclavicle -3.37934e-015 7.85199e-015
rhumerus -29.5998 -23.1668 -78.5611
rradius 17.2197
rwrist 7.7787
rhand -8.15748 -32.8229
rfingers 7.12502
rthumb 17.7573 -62.0321
lclavicle -3.37934e-015 7.85199e-015
lhumerus -42.0172 26.6147 76.7193
lradius 32.889
lwrist -6.39167
lhand -6.15916 -12.5539
lfingers 7.12502
lthumb 19.6794 16.47
rfemur -3.383 -0.440531 11.4541
rtibia 14.8469
rfoot -14.0345 -13.7647
rtoes 14.5387
lfemur -1.88336 0.592413 -19.2012
ltibia 10.9146
lfoot -15.2288 2.54329
ltoes -27.554
21
root 1.17047 17.7922 5.32605 5.11083 -2.03766 2.06376
lowerback -1.96764 -1.81938 -5.77437
upperback -3.54898 -2.40305 0.610705
thorax -2.30045 -1.05305 3.86206
lowerneck -9.50889 -5.71497 -6.09979
upperneck 16.9941 -7.58693 4.05422
head 7.15814 -3.70343 1.61341
rclavicle 1.216e-014 1.70955e-014
rhumerus -29.7584 -23.5298 -78.3204
rradius 17.2276
rwrist 7.7551
rhand -7.97136 -32.7536
rfingers 7.12502
rthumb 17.9364 -61.9465
lclavicle 1.216e-014 1.70955e-014
lhumerus -41.937 26.452 76.7575
lradius 32.7008
lwrist -6.64012
lhand -5.97612 -12.7045
lfingers 7.12502
lthumb 19.8553 16.3012
rfemur -3.43033 -0.471561 11.4457
rtibia 14.9238
rfoot -14.0496 -13.7267
rtoes 14.3883
lfemur -1.86936 0.58131 -19.2038
ltibia 10.885
lfoot -15.2421 2.51981
ltoes -27.6018
22
root 1.17313 17.7922 5.32831 5.12575 -2.0024 2.04982
lowerback -2.00817 -1.76933 -5.6916
upperback -3.59305 -2.33558 0.58869
thorax -2.3343 -1.01962 3.79297
lowerneck -10.1983 -5.01264 -5.5889
upperneck 18.1483 -6.73756 4.16265
head 7.59466 -3.24021 1.62804
rclavicle -2.82181e-014 6.85807e-015
rhumerus -29.9151 -23.8006 -78.1524
rradius 17.2223
rwrist 7.83484
rhand -7.79569 -32.8588
rfingers 7.12502
rthumb 18.1054 -62.0361
lclavicle -2.82181e-014 6.85807e-015
lhumerus -41.8886 26.1894 76.8338
lradius 32.6438
lwrist -6.76961
lhand -5.83157 -12.6339
lfingers 7.12502
lthumb 19.9943 16.3574
rfemur -3.44592 -0.524619 11.4462
rtibia 14.9737
rfoot -14.1181 -13.6959
rtoes 14.4392
lfemur -1.86268 0.545529 -19.2002
ltibia 10.8543
lfoot -15.2508 2.48861
ltoes -27.5374
23
root 1.17431 17.7919 5.33186 5.13804 -1.9597 1.94019
lowerback -2.08979 -1.70398 -5.51912
upperback -3.61459 -2.24411 0.60629
thorax -2.32512 -0.977735 3.71294
lowerneck -10.8922 -4.37901 -5.22797
upperneck 19.3368 -5.97639 4.32669
head 8.06439 -2.82201 1.68523
rclavicle 1.14736e-014 -9.54166e-015
rhumerus -30.0829 -24.0787 -77.9714
rradius 17.2529
rwrist 8.02338
rhand -7.75017 -33.0105
rfingers 7.12502
rthumb 18.1492 -62.1838
lclavicle 1.14736e-014 -9.54166e-015
lhumerus -41.7898 25.7764 77.0413
lradius 32.6613
lwrist -6.72966
lhand -5.82056 -12.4964
lfingers 7.12502
lthumb 20.0048 16.4938
rfemur -3.41883 -0.514339 11.5838
rtibia 14.9644
rfoot -14.1506 -13.7238
rtoes 14.3499
lfemur -1.83913 0.552465 -19.0586
ltibia 10.8156
lfoot -15.2517 2.44923
ltoes -27.4909
24
root 1.17347 17.7909 5.33507 5.10989 -1.93988 1.85952
lowerback -2.11682 -1.61289 -5.41007
upperback -3.63305 -2.12132 0.634452
thorax -2.34402 -0.917683 3.68151
lowerneck -11.5081 -3.79781 -4.79947
upperneck 20.4288 -5.26567 4.30073
head 8.49174 -2.44162 1.67298
rclavicle -1.48219e-014 -5.46658e-015
rhumerus -30.2426 -24.3324 -77.7632
rradius 17.2478
rwrist 8.27546
rhand -7.80568 -33.0944
rfingers 7.12502
rthumb 18.0958 -62.2726
lclavicle -1.48219e-014 -5.46658e-015
lhumerus -41.6283 25.4635 77.229
lradius 32.6046
lwrist -6.70442
lhand -5.75922 -12.427
lfingers 7.12502
lthumb 20.0638 16.557
rfemur -3.35442 -0.435454 11.7011
rtibia 14.9344
rfoot -14.1938 -13.7943
rtoes 14.5506
lfemur -1.77606 0.561112 -18.945
ltibia 10.776
lfoot -15.2514 2.42639
ltoes -27.4925
25
root 1.1745 17.7902 5.3369 5.07316 -1.92213 1.88786
lowerback -2.12672 -1.53728 -5.38401
upperback -3.64227 -2.02044 0.617925
thorax -2.35969 -0.867414 3.65049
lowerneck -12.0526 -3.20832 -4.12994
upperneck 21.4174 -4.54375 4.04427
head 8.86857 -2.06202 1.55094
rclavicle -2.16489e-014 -2.98177e-015
rhumerus -30.3536 -24.5585 -77.5888
rradius 17.2053
rwrist 8.343
rhand -7.81864 -33.154
rfingers 7.12502
rthumb 18.0833 -62.3334
lclavicle -2.16489e-014 -2.98177e-015
lhumerus -41.4701 25.2742 77.3211
lradius 32.5641
lwrist -6.69438
lhand -5.66516 -12.3342
lfingers 7.12502
lthumb 20.1542 16.6404
rfemur -3.31066 -0.437038 11.6651
rtibia 14.9547
rfoot -14.24 -13.7776
rtoes 15.0583
lfemur -1.72486 0.566019 -18.9877
ltibia 10.7699
lfoot -15.2696 2.43254
ltoes -27.492
